<svg width="20" height="24" viewBox="0 0 20 24" xmlns="http://www.w3.org/2000/svg">
  <path d="M0.707107 18.0679C0.316582 18.4584 0.316582 19.0916 0.707107 19.4821L0.767893 19.5429C1.15842 19.9334 1.79158 19.9334 2.18211 19.5429L9.01789 12.7071C9.40842 12.3166 9.40842 11.6834 9.01789 11.2929L2.18211 4.45711C1.79158 4.06658 1.15842 4.06658 0.767894 4.45711L0.707107 4.51789C0.316583 4.90842 0.316582 5.54158 0.707107 5.93211L6.775 12L0.707107 18.0679Z"/>
  <path d="M10.7071 18.0679C10.3166 18.4584 10.3166 19.0916 10.7071 19.4821L10.7679 19.5429C11.1584 19.9334 11.7916 19.9334 12.1821 19.5429L19.0179 12.7071C19.4084 12.3166 19.4084 11.6834 19.0179 11.2929L12.1821 4.45711C11.7916 4.06658 11.1584 4.06658 10.7679 4.45711L10.7071 4.51789C10.3166 4.90842 10.3166 5.54158 10.7071 5.93211L16.775 12L10.7071 18.0679Z"/>
</svg>
