<svg width="48" height="48" viewBox="0 0 48 48" fill="none" xmlns="http://www.w3.org/2000/svg">
<path d="M29.9273 21.7787C29.9273 22.3681 29.6932 22.9334 29.2764 23.3502C28.8596 23.7669 28.2944 24.0011 27.705 24.0011H24.0011V27.705C24.0011 28.2944 23.7669 28.8596 23.3502 29.2764C22.9334 29.6932 22.3681 29.9273 21.7787 29.9273C21.1893 29.9273 20.6241 29.6932 20.2073 29.2764C19.7905 28.8596 19.5564 28.2944 19.5564 27.705V24.0011H15.8525C15.2631 24.0011 14.6978 23.7669 14.2811 23.3502C13.8643 22.9334 13.6302 22.3681 13.6302 21.7787C13.6302 21.1893 13.8643 20.6241 14.2811 20.2073C14.6978 19.7905 15.2631 19.5564 15.8525 19.5564H19.5564V15.8525C19.5564 15.2631 19.7905 14.6978 20.2073 14.2811C20.6241 13.8643 21.1893 13.6302 21.7787 13.6302C22.3681 13.6302 22.9334 13.8643 23.3502 14.2811C23.7669 14.6978 24.0011 15.2631 24.0011 15.8525V19.5564H27.705C28.2944 19.5564 28.8596 19.7905 29.2764 20.2073C29.6932 20.6241 29.9273 21.1893 29.9273 21.7787ZM43.354 43.354C42.9346 43.7679 42.3691 44 41.7798 44C41.1906 44 40.625 43.7679 40.2057 43.354L32.6682 35.8165C29.5614 38.2509 25.7256 39.5686 21.7787 39.5575C18.2624 39.5575 14.8251 38.5148 11.9014 36.5612C8.97771 34.6077 6.69896 31.831 5.35333 28.5824C4.0077 25.3337 3.65563 21.759 4.34162 18.3103C5.02762 14.8615 6.72088 11.6937 9.20728 9.20728C11.6937 6.72088 14.8615 5.02762 18.3103 4.34162C21.759 3.65563 25.3337 4.0077 28.5824 5.35333C31.831 6.69896 34.6077 8.97771 36.5612 11.9014C38.5148 14.8251 39.5575 18.2624 39.5575 21.7787C39.5686 25.7257 38.2509 29.5614 35.8165 32.6682L43.354 40.2057C43.5611 40.4121 43.7255 40.6574 43.8377 40.9276C43.9499 41.1977 44.0076 41.4873 44.0076 41.7798C44.0076 42.0723 43.9499 42.3619 43.8377 42.632C43.7255 42.9022 43.5611 43.1475 43.354 43.354ZM21.7787 35.1128C24.416 35.1128 26.994 34.3308 29.1867 32.8656C31.3795 31.4004 33.0886 29.3179 34.0978 26.8815C35.107 24.445 35.3711 21.7639 34.8566 19.1774C34.3421 16.5908 33.0721 14.2149 31.2073 12.3501C29.3425 10.4853 26.9666 9.2154 24.3801 8.7009C21.7935 8.1864 19.1125 8.45046 16.676 9.45968C14.2395 10.4689 12.157 12.178 10.6919 14.3707C9.22672 16.5635 8.44469 19.1415 8.44469 21.7787C8.44959 25.3136 9.856 28.7024 12.3556 31.2019C14.8551 33.7015 18.2438 35.1079 21.7787 35.1128Z" fill="white"/>
</svg>
