<svg width="120" height="120" viewBox="0 0 120 120" fill="none" xmlns="http://www.w3.org/2000/svg">
  <circle cx="60" cy="60" r="42" fill="#FF7B43" stroke="white" stroke-width="4"/>
  <circle cx="60" cy="60" r="53" stroke="white" stroke-opacity="0.4" stroke-width="4"/>
  <path d="M113 60C113 68.5485 110.932 76.9701 106.973 84.5465C103.014 92.1228 97.2809 98.6291 90.263 103.51C83.2452 108.392 75.1508 111.503 66.6703 112.579C58.1898 113.654 49.5749 112.663 41.5605 109.689C33.546 106.715 26.37 101.846 20.6444 95.4984C14.9188 89.1506 10.8136 81.5121 8.67896 73.2344C6.54435 64.9568 6.44368 56.2856 8.38553 47.9606C10.3274 39.6356 14.2541 31.9039 19.8308 25.4249" stroke="white" stroke-width="4" stroke-linecap="round" stroke-linejoin="round"/>
  <path d="M73 56.5359C75.6667 58.0755 75.6667 61.9245 73 63.4641L58 72.1244C55.3333 73.664 52 71.7395 52 68.6603V51.3397C52 48.2605 55.3333 46.336 58 47.8756L73 56.5359Z" fill="white"/>
</svg>
