
<svg width="0" height="0" class="hidden">
  <symbol xmlns="http://www.w3.org/2000/svg" viewBox="0 0 19 18" id="phone">
    <path d="M16.7291 12.2598L14.1891 11.9698C13.8904 11.9347 13.5877 11.9678 13.3036 12.0665C13.0196 12.1652 12.7616 12.327 12.5491 12.5398L10.7091 14.3798C7.87025 12.936 5.56285 10.6286 4.11906 7.78977L5.96906 5.93977C6.39906 5.50977 6.60906 4.90977 6.53906 4.29977L6.24906 1.77977C6.19237 1.29194 5.95826 0.842003 5.5913 0.515614C5.22434 0.189225 4.75017 0.009183 4.25906 0.00976671L2.52906 0.00976686C1.39906 0.00976696 0.459064 0.949767 0.529064 2.07977C1.05907 10.6198 7.88907 17.4398 16.4191 17.9698C17.5491 18.0398 18.4891 17.0998 18.4891 15.9698L18.4891 14.2398C18.4991 13.2298 17.7391 12.3798 16.7291 12.2598Z"></path>
  </symbol>
  <symbol xmlns="http://www.w3.org/2000/svg" viewBox="0 0 20 20" id="watsapp">
    <path d="M0.00401513 20L1.35601 15.032C0.465152 13.5049 -0.0028896 11.768 1.43065e-05 10C1.38236e-05 4.477 4.47701 -3.91393e-07 10 -8.74229e-07C15.523 -1.35706e-06 20 4.477 20 10C20 15.523 15.523 20 10 20C8.23279 20.0029 6.49667 19.5352 4.97001 18.645L0.00401513 20ZM6.39101 5.308C6.26188 5.31602 6.13569 5.35003 6.02001 5.408C5.91154 5.46943 5.81251 5.54622 5.72601 5.636C5.60601 5.749 5.53801 5.847 5.46501 5.942C5.09543 6.423 4.89662 7.01342 4.90001 7.62C4.90201 8.11 5.03001 8.587 5.23001 9.033C5.63901 9.935 6.31201 10.89 7.20101 11.775C7.41501 11.988 7.62401 12.202 7.84901 12.401C8.9524 13.3725 10.2673 14.073 11.689 14.447L12.258 14.534C12.443 14.544 12.628 14.53 12.814 14.521C13.1053 14.506 13.3896 14.4271 13.647 14.29C13.778 14.2225 13.9058 14.1491 14.03 14.07C14.03 14.07 14.073 14.042 14.155 13.98C14.29 13.88 14.373 13.809 14.485 13.692C14.568 13.606 14.64 13.505 14.695 13.39C14.773 13.227 14.851 12.916 14.883 12.657C14.907 12.459 14.9 12.351 14.897 12.284C14.893 12.177 14.804 12.066 14.707 12.019L14.125 11.758C14.125 11.758 13.255 11.379 12.724 11.137C12.668 11.1126 12.608 11.0987 12.547 11.096C12.4786 11.089 12.4095 11.0967 12.3443 11.1186C12.2791 11.1405 12.2193 11.1761 12.169 11.223L12.169 11.221C12.164 11.221 12.097 11.278 11.374 12.154C11.3325 12.2098 11.2754 12.2519 11.2098 12.2751C11.1443 12.2982 11.0733 12.3013 11.006 12.284C10.9409 12.2666 10.877 12.2445 10.815 12.218C10.691 12.166 10.648 12.146 10.563 12.109L10.558 12.107C9.98592 11.8572 9.45624 11.5198 8.98801 11.107C8.86201 10.997 8.74501 10.877 8.62501 10.761C8.23159 10.3842 7.88873 9.95801 7.60501 9.493L7.54601 9.398C7.50364 9.33416 7.46937 9.2653 7.44401 9.193C7.40601 9.046 7.50501 8.928 7.50501 8.928C7.50501 8.928 7.74801 8.662 7.86101 8.518C7.9551 8.39832 8.04289 8.27382 8.12401 8.145C8.24201 7.955 8.27901 7.76 8.21701 7.609C7.93701 6.925 7.64701 6.244 7.34901 5.568C7.29001 5.434 7.11501 5.338 6.95601 5.319C6.90201 5.313 6.84801 5.307 6.79401 5.303C6.65972 5.29633 6.52515 5.29866 6.39101 5.308Z"></path>
  </symbol>
  <symbol xmlns="http://www.w3.org/2000/svg" viewBox="0 0 21 16" id="email">
    <path fill-rule="evenodd" clip-rule="evenodd" d="M17.5 16C18.2956 16 19.0587 15.6839 19.6213 15.1213C20.1839 14.5587 20.5 13.7956 20.5 13L20.5 3C20.5 2.20435 20.1839 1.44129 19.6213 0.87868C19.0587 0.31607 18.2956 -1.9271e-07 17.5 -2.62268e-07L3.5 -1.48619e-06C2.70435 -1.55575e-06 1.94129 0.316069 1.37868 0.878678C0.81607 1.44129 0.5 2.20435 0.5 3L0.499999 13C0.499999 13.7956 0.816069 14.5587 1.37868 15.1213C1.94129 15.6839 2.70435 16 3.5 16L17.5 16ZM14.875 4.22C14.9769 4.13302 15.0952 4.06739 15.2229 4.027C15.3506 3.98662 15.4851 3.97231 15.6185 3.98491C15.7518 3.99752 15.8813 4.03679 15.9992 4.1004C16.1171 4.164 16.221 4.25064 16.3047 4.35517C16.3885 4.4597 16.4504 4.58 16.4868 4.70891C16.5232 4.83783 16.5333 4.97274 16.5165 5.10564C16.4997 5.23853 16.4564 5.36671 16.3892 5.48255C16.3219 5.59839 16.2321 5.69954 16.125 5.78L12.375 8.781C11.8429 9.20701 11.1816 9.43913 10.5 9.43913C9.81838 9.43913 9.15709 9.20701 8.625 8.781L4.875 5.781C4.77244 5.69892 4.68704 5.59745 4.6237 5.48237C4.56035 5.36729 4.52029 5.24087 4.50581 5.11031C4.49132 4.97975 4.50269 4.84761 4.53927 4.72145C4.57585 4.59528 4.63692 4.47756 4.719 4.375C4.80108 4.27244 4.90255 4.18704 5.01763 4.1237C5.1327 4.06035 5.25913 4.02029 5.38969 4.00581C5.52025 3.99132 5.65238 4.00269 5.77855 4.03927C5.90471 4.07585 6.02244 4.13692 6.125 4.219L9.875 7.219C10.0524 7.361 10.2728 7.43837 10.5 7.43837C10.7272 7.43837 10.9476 7.361 11.125 7.219L14.875 4.219L14.875 4.22Z"></path>
  </symbol>
  <symbol xmlns="http://www.w3.org/2000/svg" viewBox="0 0 18 22" id="geolocation">
    <path d="M8.99023 0.499999C11.1775 0.502481 13.2745 1.37247 14.8211 2.91911C16.3678 4.46575 17.2378 6.56273 17.2402 8.75C17.2402 15.8094 9.74023 21.1437 9.42148 21.3687C9.29374 21.4538 9.1437 21.4992 8.99023 21.4992C8.83676 21.4992 8.68672 21.4538 8.55898 21.3687C8.24023 21.1437 0.740233 15.8094 0.740234 8.75C0.742715 6.56272 1.61271 4.46575 3.15934 2.91911C4.70598 1.37247 6.80296 0.50248 8.99023 0.499999ZM8.99023 5.75C8.39689 5.75 7.81687 5.92595 7.32352 6.25559C6.83017 6.58523 6.44566 7.05377 6.2186 7.60195C5.99153 8.15013 5.93212 8.75333 6.04788 9.33527C6.16363 9.91721 6.44936 10.4518 6.86891 10.8713C7.28847 11.2909 7.82302 11.5766 8.40496 11.6924C8.98691 11.8081 9.59011 11.7487 10.1383 11.5216C10.6865 11.2946 11.155 10.9101 11.4846 10.4167C11.8143 9.92336 11.9902 9.34334 11.9902 8.75C11.9902 7.95435 11.6742 7.19129 11.1116 6.62868C10.5489 6.06607 9.78588 5.75 8.99023 5.75Z"></path>
  </symbol>
  <symbol xmlns="http://www.w3.org/2000/svg" viewBox="0 0 20 20" id="clock">
    <path d="M10 -8.74228e-07C4.5 -3.93402e-07 3.93402e-07 4.5 8.74228e-07 10C1.35505e-06 15.5 4.5 20 10 20C15.5 20 20 15.5 20 10C20 4.5 15.5 -1.35505e-06 10 -8.74228e-07ZM14.3 13.2L9 10.3L9 5L10.5 5L10.5 9.4L15 11.9L14.3 13.2Z" ></path>
  </symbol>
    <symbol xmlns="http://www.w3.org/2000/svg" viewBox="0 0 16 13" id="next-arrow">
    <path d="M15 6.5H1M15 6.5L9.5 1M15 6.5L9.5 12" stroke-width="2" stroke-linecap="round" stroke-linejoin="round"></path>
  </symbol>
  <symbol xmlns="http://www.w3.org/2000/svg" viewBox="0 0 16 13" id="prev-arrow">
    <path d="M1 6.5L15 6.5M1 6.5L6.5 12M1 6.5L6.5 1" stroke-width="2" stroke-linecap="round" stroke-linejoin="round"></path>
  </symbol>
  <symbol fill="none" xmlns="http://www.w3.org/2000/svg" viewBox="0 0 120 120" id="play">
    <circle cx="60" cy="60" r="42" fill="#FF7B43" stroke="white" stroke-width="4"></circle>
    <circle cx="60" cy="60" r="53" stroke="white" stroke-opacity="0.4" stroke-width="4"></circle>
    <path d="M113 60C113 68.5485 110.932 76.9701 106.973 84.5465C103.014 92.1228 97.2809 98.6291 90.263 103.51C83.2452 108.392 75.1508 111.503 66.6703 112.579C58.1898 113.654 49.5749 112.663 41.5605 109.689C33.546 106.715 26.37 101.846 20.6444 95.4984C14.9188 89.1506 10.8136 81.5121 8.67896 73.2344C6.54435 64.9568 6.44368 56.2856 8.38553 47.9606C10.3274 39.6356 14.2541 31.9039 19.8308 25.4249" stroke="white" stroke-width="4" stroke-linecap="round" stroke-linejoin="round"></path>
    <path d="M73 56.5359C75.6667 58.0755 75.6667 61.9245 73 63.4641L58 72.1244C55.3333 73.664 52 71.7395 52 68.6603V51.3397C52 48.2605 55.3333 46.336 58 47.8756L73 56.5359Z" fill="white"></path>
  </symbol>
  <symbol fill="none" xmlns="http://www.w3.org/2000/svg" viewBox="0 0 48 48" id="hover-img">
    <path d="M29.9273 21.7787C29.9273 22.3681 29.6932 22.9334 29.2764 23.3502C28.8596 23.7669 28.2944 24.0011 27.705 24.0011H24.0011V27.705C24.0011 28.2944 23.7669 28.8596 23.3502 29.2764C22.9334 29.6932 22.3681 29.9273 21.7787 29.9273C21.1893 29.9273 20.6241 29.6932 20.2073 29.2764C19.7905 28.8596 19.5564 28.2944 19.5564 27.705V24.0011H15.8525C15.2631 24.0011 14.6978 23.7669 14.2811 23.3502C13.8643 22.9334 13.6302 22.3681 13.6302 21.7787C13.6302 21.1893 13.8643 20.6241 14.2811 20.2073C14.6978 19.7905 15.2631 19.5564 15.8525 19.5564H19.5564V15.8525C19.5564 15.2631 19.7905 14.6978 20.2073 14.2811C20.6241 13.8643 21.1893 13.6302 21.7787 13.6302C22.3681 13.6302 22.9334 13.8643 23.3502 14.2811C23.7669 14.6978 24.0011 15.2631 24.0011 15.8525V19.5564H27.705C28.2944 19.5564 28.8596 19.7905 29.2764 20.2073C29.6932 20.6241 29.9273 21.1893 29.9273 21.7787ZM43.354 43.354C42.9346 43.7679 42.3691 44 41.7798 44C41.1906 44 40.625 43.7679 40.2057 43.354L32.6682 35.8165C29.5614 38.2509 25.7256 39.5686 21.7787 39.5575C18.2624 39.5575 14.8251 38.5148 11.9014 36.5612C8.97771 34.6077 6.69896 31.831 5.35333 28.5824C4.0077 25.3337 3.65563 21.759 4.34162 18.3103C5.02762 14.8615 6.72088 11.6937 9.20728 9.20728C11.6937 6.72088 14.8615 5.02762 18.3103 4.34162C21.759 3.65563 25.3337 4.0077 28.5824 5.35333C31.831 6.69896 34.6077 8.97771 36.5612 11.9014C38.5148 14.8251 39.5575 18.2624 39.5575 21.7787C39.5686 25.7257 38.2509 29.5614 35.8165 32.6682L43.354 40.2057C43.5611 40.4121 43.7255 40.6574 43.8377 40.9276C43.9499 41.1977 44.0076 41.4873 44.0076 41.7798C44.0076 42.0723 43.9499 42.3619 43.8377 42.632C43.7255 42.9022 43.5611 43.1475 43.354 43.354ZM21.7787 35.1128C24.416 35.1128 26.994 34.3308 29.1867 32.8656C31.3795 31.4004 33.0886 29.3179 34.0978 26.8815C35.107 24.445 35.3711 21.7639 34.8566 19.1774C34.3421 16.5908 33.0721 14.2149 31.2073 12.3501C29.3425 10.4853 26.9666 9.2154 24.3801 8.7009C21.7935 8.1864 19.1125 8.45046 16.676 9.45968C14.2395 10.4689 12.157 12.178 10.6919 14.3707C9.22672 16.5635 8.44469 19.1415 8.44469 21.7787C8.44959 25.3136 9.856 28.7024 12.3556 31.2019C14.8551 33.7015 18.2438 35.1079 21.7787 35.1128Z" fill="white"></path>
  </symbol>
  <symbol fill="none" xmlns="http://www.w3.org/2000/svg" viewBox="0 0 16 16" id="checkbox">
    <rect x="0.5" y="0.5" width="15" height="15" rx="0.5" stroke="#FF7B43"></rect>
    <path d="M13 5L8 10.5L3.5 6" stroke="white" stroke-width="2" stroke-linecap="round" stroke-linejoin="round"></path>
  </symbol>
</svg>